<svg xmlns="http://www.w3.org/2000/svg" viewBox="0 0 95.76014 69.02912"><title>logo</title><path d="M79.71475,83.61559,18.21026,74.57924A12.43121,12.43121,0,0,1,8.11465,64.57133L2.728,38.93321c-1.60374-7.63309,3.32683-15.06272,10.5133-15.8419l71.12923-7.71183c7.59022-.82291,13.95542,6.13379,13.13354,14.35405l-4.238,42.38624C92.53789,79.40221,86.41141,84.59946,79.71475,83.61559Z" transform="translate(-2.11993 -15.00904)" style="fill:#66fcf1"/><path d="M15.59772,83.36616A10.99039,10.99039,0,0,1,6.54815,80.109,13.19892,13.19892,0,0,1,2.79972,69.34546L4.83723,48.96834l-.41477-1.97388L2.19373,69.28475A13.80492,13.80492,0,0,0,6.11937,80.5413a11.81718,11.81718,0,0,0,8.31752,3.49686,11.30806,11.30806,0,0,0,1.22629-.06662l38.25008-4.14688-2.39876-.35242Z" transform="translate(-2.11993 -15.00904)" style="fill:#66fcf1"/><path d="M11.847,18.00563a11.03139,11.03139,0,0,1,6.8114-2.38743,10.90211,10.90211,0,0,1,1.5834.11595l25.84109,3.79654,2.41033-.26132L20.33037,15.13169a11.56462,11.56462,0,0,0-8.8581,2.3937A13.53086,13.53086,0,0,0,6.529,26.25025c.22928-.2182.46507-.429.71007-.6284A12.86009,12.86009,0,0,1,11.847,18.00563Z" transform="translate(-2.11993 -15.00904)" style="fill:#66fcf1"/><path d="M97.57068,60.05261l-2.09859-9.98873-.2006,2.00646,1.70331,8.10717A13.50334,13.50334,0,0,1,94.753,70.878a12.47076,12.47076,0,0,1-1.55009,1.75714q-.0654.47773-.16083.94227A12.9058,12.9058,0,0,0,95.246,71.236,14.11346,14.11346,0,0,0,97.57068,60.05261Z" transform="translate(-2.11993 -15.00904)" style="fill:#66fcf1"/><path d="M86.72689,75.65464,51.5145,79.47224l2.39876.35242,32.879-3.56458a11.70092,11.70092,0,0,0,6.2498-2.68266q.09591-.46431.16083-.94227A11.153,11.153,0,0,1,86.72689,75.65464Z" transform="translate(-2.11993 -15.00904)" style="fill:#66fcf1"/><path d="M18.5164,52.88838l-.04778.00588a3.41467,3.41467,0,0,1-1.48015,1.46685,6.28571,6.28571,0,0,1-2.09317.62132,4.84164,4.84164,0,0,1-1.85765-.12308,4.49162,4.49162,0,0,1-1.62639-.80573,4.83568,4.83568,0,0,1-1.21767-1.42593,5.22492,5.22492,0,0,1-.632-1.98273A4.2678,4.2678,0,0,1,9.722,48.79484a4.56458,4.56458,0,0,1,.86233-1.56059A4.83751,4.83751,0,0,1,12.019,46.088a5.3965,5.3965,0,0,1,1.90384-.5856,4.74,4.74,0,0,1,1.89023.09453,5.908,5.908,0,0,1,1.36742.57112l-.08814-.7164a1.47837,1.47837,0,0,0-.89592-1.36851,4.20331,4.20331,0,0,0-1.90659-.12889,8.55647,8.55647,0,0,0-1.93166.45564q-.88135.3267-1.7772.72794l.46422-3.91161A13.77893,13.77893,0,0,1,13.376,40.4665a24.29452,24.29452,0,0,1,2.515-.44254,9.69758,9.69758,0,0,1,2.32631-.00763,5.55448,5.55448,0,0,1,2.08022.65318,4.51842,4.51842,0,0,1,1.54634,1.434,5.10453,5.10453,0,0,1,.77428,2.35323l.84788,9.05916-4.74986.99641ZM14.94,48.84369a2.64315,2.64315,0,0,0-1.2682.72565,1.08885,1.08885,0,0,0-.33195,1.047,1.10773,1.10773,0,0,0,.78194.74017,2.64486,2.64486,0,0,0,1.53258-.05519,2.45038,2.45038,0,0,0,1.31157-.76737,1.07936,1.07936,0,0,0,.23787-1.02327,1.14438,1.14438,0,0,0-.7044-.70121A2.29212,2.29212,0,0,0,14.94,48.84369Z" transform="translate(-2.11993 -15.00904)" style="fill:#0b0c10"/><path d="M28.73182,38.78325l.19981,1.62392A5.29781,5.29781,0,0,1,30.3684,38.982a4.56339,4.56339,0,0,1,1.92182-.63661,5.49773,5.49773,0,0,1,2.69262.31107,6.49171,6.49171,0,0,1,2.21009,1.413,7.8432,7.8432,0,0,1,1.56429,2.17115,8.03815,8.03815,0,0,1,.77827,2.58285,8.13965,8.13965,0,0,1-.13811,2.81713,7.6302,7.6302,0,0,1-1.05976,2.51827,6.76179,6.76179,0,0,1-1.88706,1.90465,5.848,5.848,0,0,1-2.59806.9502,6.52272,6.52272,0,0,1-1.61454-.01961,3.36882,3.36882,0,0,1-1.6222-.67315l.72807,4.73467L26.358,58.10529,23.84159,39.82147Zm4.385,8.84222a2.713,2.713,0,0,0,1.27139-1.58668,2.03124,2.03124,0,0,0-1.65569-2.62068,2.7807,2.7807,0,0,0-1.96628.47232,2.86558,2.86558,0,0,0-1.30576,1.603,2.05722,2.05722,0,0,0,.84329,2.32049,2.05424,2.05424,0,0,0,.82459.2984,2.69017,2.69017,0,0,0,.96383-.04583A3.15765,3.15765,0,0,0,33.11678,47.62547Z" transform="translate(-2.11993 -15.00904)" style="fill:#0b0c10"/><path d="M43.99125,36.90572l.19981,1.62392a5.29781,5.29781,0,0,1,1.43677-1.42514,4.56325,4.56325,0,0,1,1.92182-.6366,5.49761,5.49761,0,0,1,2.69262.31106,6.49186,6.49186,0,0,1,2.21009,1.413,7.8431,7.8431,0,0,1,1.56429,2.17116,8.03829,8.03829,0,0,1,.77828,2.58284,8.13972,8.13972,0,0,1-.13812,2.81714,7.63023,7.63023,0,0,1-1.05976,2.51826A6.76188,6.76188,0,0,1,51.71,50.186a5.8481,5.8481,0,0,1-2.59807.9502,6.52318,6.52318,0,0,1-1.61454-.0196,3.36894,3.36894,0,0,1-1.6222-.67316l.72807,4.73467-4.98583,1.04969L39.101,37.94394Zm4.385,8.84222a2.713,2.713,0,0,0,1.27139-1.58668,2.03124,2.03124,0,0,0-1.65569-2.62068,2.7807,2.7807,0,0,0-1.96628.47232,2.86562,2.86562,0,0,0-1.30576,1.603,2.05723,2.05723,0,0,0,.8433,2.3205,2.05432,2.05432,0,0,0,.82459.29839,2.69019,2.69019,0,0,0,.96383-.04583A3.1577,3.1577,0,0,0,48.37621,45.74794Z" transform="translate(-2.11993 -15.00904)" style="fill:#0b0c10"/><path d="M56.39273,45.39182a7.97687,7.97687,0,0,0,1.43556-.05537q.334-.0411.703-.09862a4.13435,4.13435,0,0,0,.65981-.15394,1.30856,1.30856,0,0,0,.47641-.26475.49584.49584,0,0,0,.15019-.45471.57823.57823,0,0,0-.43614-.492,6.75047,6.75047,0,0,0-.95011-.23445q-.558-.10066-1.23074-.24872a3.89131,3.89131,0,0,1-1.26423-.52319,3.58279,3.58279,0,0,1-1.05295-1.0703,4.36927,4.36927,0,0,1-.608-1.88867,4.1209,4.1209,0,0,1,.11929-1.59043,3.79087,3.79087,0,0,1,.83263-1.50873,5.25369,5.25369,0,0,1,1.66776-1.22317,8.17223,8.17223,0,0,1,2.60357-.70837q.5968-.07342,1.19979-.09912.60273-.02521,1.15063-.00819.54742.018,1.01171.04528.46338.02829.78328.06126l.51712,4.20284q-.61486-.06984-1.19969-.0949a7.6537,7.6537,0,0,0-1.25345.05722c-.09555.01176-.24661.03468-.45243.0678a4.22188,4.22188,0,0,0-.612.148,1.68755,1.68755,0,0,0-.52419.27064.4355.4355,0,0,0-.19187.41162.61647.61647,0,0,0,.45274.526,5.91314,5.91314,0,0,0,.98713.242q.58159.09862,1.28.25478A4.3753,4.3753,0,0,1,63.961,41.491a3.57532,3.57532,0,0,1,1.08878,1.06589,4.2575,4.2575,0,0,1,.62,1.88749,3.88384,3.88384,0,0,1-.29668,2.21824,4.19489,4.19489,0,0,1-1.31164,1.55525,6.81032,6.81032,0,0,1-2.02375.98838,14.10185,14.10185,0,0,1-2.4572.52059,16.23526,16.23526,0,0,1-1.98473.123,14.33139,14.33139,0,0,1-1.99317-.14278l-.54946-4.46563A12.3627,12.3627,0,0,0,56.39273,45.39182Z" transform="translate(-2.11993 -15.00904)" style="fill:#0b0c10"/><path d="M74.33722,45.53542l-.04778.00588a3.30282,3.30282,0,0,1-1.26336,2.04617,4.95624,4.95624,0,0,1-2.30826.84179,4.0523,4.0523,0,0,1-3.03221-.7058,4.11257,4.11257,0,0,1-1.49108-2.95591l-1.234-10.02962,5.27246-1.08525.94381,8.85335a1.01743,1.01743,0,0,0,.35222.793,1.23444,1.23444,0,0,0,.87865.14652,1.21416,1.21416,0,0,0,.74673-.33439.9377.9377,0,0,0,.17455-.84572l-1.18052-8.41195,5.43969-1.10583,1.39021,14.25292-4.37074.73179Z" transform="translate(-2.11993 -15.00904)" style="fill:#0b0c10"/><path d="M81.1565,42.34488a7.97773,7.97773,0,0,0,1.43555-.05538q.334-.0411.703-.09862a4.13422,4.13422,0,0,0,.6598-.15394,1.30833,1.30833,0,0,0,.47641-.26475.49584.49584,0,0,0,.15019-.45471.57822.57822,0,0,0-.43614-.492,6.75308,6.75308,0,0,0-.9501-.23445q-.558-.10066-1.23075-.24871a3.89156,3.89156,0,0,1-1.26423-.5232,3.58279,3.58279,0,0,1-1.05295-1.0703,4.36914,4.36914,0,0,1-.608-1.88867,4.1207,4.1207,0,0,1,.11928-1.59043A3.79076,3.79076,0,0,1,79.9912,33.761,5.25367,5.25367,0,0,1,81.659,32.53783a8.17232,8.17232,0,0,1,2.60357-.70836q.59682-.07344,1.19979-.09912.60274-.02523,1.15063-.0082.54743.018,1.01171.04528.46338.0283.78328.06126l.51713,4.20285q-.61488-.06986-1.1997-.0949a7.65131,7.65131,0,0,0-1.25344.05722c-.09556.01175-.24662.03467-.45244.06779a4.22223,4.22223,0,0,0-.612.14806,1.68732,1.68732,0,0,0-.52419.27063.43552.43552,0,0,0-.19187.41163.61645.61645,0,0,0,.45275.526,5.91177,5.91177,0,0,0,.98712.242q.58161.09864,1.28.25478a4.37587,4.37587,0,0,1,1.31347.52926A3.57547,3.57547,0,0,1,89.81354,39.51a4.25767,4.25767,0,0,1,.62,1.88749,3.88366,3.88366,0,0,1-.29668,2.21824,4.1948,4.1948,0,0,1-1.31163,1.55525,6.81038,6.81038,0,0,1-2.02376.98838,14.10185,14.10185,0,0,1-2.4572.5206,16.23709,16.23709,0,0,1-1.98473.12294,14.3315,14.3315,0,0,1-1.99317-.14278l-.54946-4.46563A12.36513,12.36513,0,0,0,81.1565,42.34488Z" transform="translate(-2.11993 -15.00904)" style="fill:#0b0c10"/></svg>